<svg height="512" viewBox="0 0 512 512" width="512" xmlns="http://www.w3.org/2000/svg"><g id="Flat"><g fill="#5c2e1a"><path d="m64 216a40 40 0 0 0 -40 40v40a40.015 40.015 0 0 0 40-40h24l-2.34-40z"/><path d="m392 160v40l55.75-.25a28 28 0 0 0 24.25-27.75v-12z"/><path d="m328 288-40 40 56 72-8 88h24l24-88z"/><path d="m184 320h-96l-4.14 74.04 36.14 93.96h32l-24-80 14.32-8.19a82.666 82.666 0 0 0 40.48-57.77z"/></g><path d="m448 232h-80l.92 27.23 9.41 32.91a27.388 27.388 0 0 0 45.69 11.84l23.98-23.98z" fill="#61311b"/><path d="m488 259.88a20.123 20.123 0 0 1 -20.12 20.12h-19.88l-31.17-25.98a33.506 33.506 0 0 0 -53.22 15.14l-12.02 36.07a33.279 33.279 0 0 1 -31.59 22.77l-24 96v64h-32v-160l-6.31 3.16a120.526 120.526 0 0 1 -113.69-3.16 64.506 64.506 0 0 1 -45.98 61.79l-34.02 10.21-8 88h-32v-104l40-32v-88a64 64 0 0 1 64-64h92.41a31.962 31.962 0 0 0 20.49-7.42l21.3-17.75a64.018 64.018 0 0 1 40.97-14.83h96.83a38.814 38.814 0 0 1 34.73 21.47l5.27 10.53 33.94 33.94a48.054 48.054 0 0 1 14.06 33.94z" fill="#7a432a"/><path d="m488 259.88a20.123 20.123 0 0 1 -20.12 20.12h-19.88l-31.17-25.98a33.506 33.506 0 0 0 -53.22 15.14l-12.02 36.07a33.279 33.279 0 0 1 -31.59 22.77l-24 96v64h-32v-160l-6.31 3.16a120.526 120.526 0 0 1 -113.69-3.16 64.506 64.506 0 0 1 -45.98 61.79l-34.02 10.21-8 88h-32v-104l40-32v-32.16c111.84-26.45 230.62-74.14 311.72-159.84h24.28a38.814 38.814 0 0 1 34.73 21.47l5.27 10.53 33.94 33.94a48.054 48.054 0 0 1 14.06 33.94z" fill="#6e3c26"/><path d="m397.6 185.882a8 8 0 0 0 -11.313.115 20 20 0 0 1 -34.287-13.997v-12h-16v12a36 36 0 0 0 61.714 25.194 8 8 0 0 0 -.114-11.312z" fill="#5c2e1a"/><rect fill="#4f2816" height="40" rx="8" width="16" x="136" y="288"/><rect fill="#4f2816" height="48" rx="8" width="16" x="256" y="288"/><path d="m400 48a15.979 15.979 0 0 0 -16 16v16a16 16 0 1 1 -32 0v48h16a16 16 0 0 1 16 16v16h32v-96a16 16 0 0 0 -16-16z" fill="#f7a116"/><path d="m240 128h64a16 16 0 0 1 16 16v16h32v-96a16 16 0 0 0 -16-16 16 16 0 0 0 -16 16v16a16 16 0 0 1 -16 16 16 16 0 0 1 -16-16v-40a16 16 0 0 0 -16-16 16 16 0 0 0 -16 16v32a16 16 0 0 1 -16 16 16 16 0 0 1 -16-16v-32a16 16 0 0 0 -16-16 16 16 0 0 0 -16 16v40a48 48 0 0 0 48 48z" fill="#ffb531"/></g></svg>